<svg width="48" height="48" viewBox="0 0 48 48" fill="none" xmlns="http://www.w3.org/2000/svg">
<rect width="48" height="48" rx="24" fill="#EBF5FF"/>
<path d="M29.9465 8.56286H18.0535C16.6866 8.56286 15.5785 9.67586 15.5785 11.0488V36.9512C15.5785 38.3241 16.6866 39.4371 18.0535 39.4371H29.9465C31.3134 39.4371 32.4215 38.3241 32.4215 36.9512V11.0488C32.4215 9.67586 31.3134 8.56286 29.9465 8.56286Z" fill="#EBF5FF"/>
<path d="M32.453 13.1459H15.547V34.854H32.453V13.1459Z" fill="white"/>
<path fill-rule="evenodd" clip-rule="evenodd" d="M18.0535 9.12573C16.9762 9.12573 16.1255 9.99947 16.1255 11.0488V12.5831H31.8745V11.0488C31.8745 9.99947 31.0238 9.12573 29.9465 9.12573H18.0535ZM32.9685 13.1135V11.0488C32.9685 9.35226 31.6029 8 29.9465 8H18.0535C16.397 8 15.0315 9.35226 15.0315 11.0488V13.1135L15 13.1459V34.854L15.0315 34.8864V36.9512C15.0315 38.6477 16.397 40 18.0535 40H29.9465C31.6029 40 32.9685 38.6477 32.9685 36.9512V34.8864L33 34.854V13.1459L32.9685 13.1135ZM31.8745 13.7088V34.2911H16.1255V13.7088H31.8745ZM16.1255 35.4168H31.8745V36.9512C31.8745 38.0005 31.0238 38.8743 29.9465 38.8743H18.0535C16.9762 38.8743 16.1255 38.0005 16.1255 36.9512V35.4168ZM25.2142 11.3082H22.7858V10.1825H25.2142V11.3082ZM25.2142 37.8174H22.7858V36.6917H25.2142V37.8174Z" fill="#2E9BFF"/>
<path d="M29.5 30V29.2252C29.5 28.4219 28.9478 27.7039 28.1261 27.4523L26.5522 26.9655C25.7913 26.7302 25.2522 26.0933 25.187 25.3469L25.0652 24H22.9348L22.813 25.3469C22.7478 26.0933 22.2087 26.7302 21.4478 26.9655L19.8739 27.4523C19.0565 27.7039 18.5 28.4219 18.5 29.2252V30" fill="white"/>
<path d="M29.5 30V29.2252C29.5 28.4219 28.9478 27.7039 28.1261 27.4523L26.5522 26.9655C25.7913 26.7302 25.2522 26.0933 25.187 25.3469L25.0652 24H22.9348L22.813 25.3469C22.7478 26.0933 22.2087 26.7302 21.4478 26.9655L19.8739 27.4523C19.0565 27.7039 18.5 28.4219 18.5 29.2252V30" stroke="#2E9BFF" stroke-width="1.5" stroke-linejoin="bevel"/>
<path d="M25.9966 20.9944C25.9966 19.8929 25.102 19 23.9983 19C22.8947 19 22 19.8929 22 20.9944V22.8004C22 23.9019 22.8947 24.7949 23.9983 24.7949C25.102 24.7949 25.9966 23.9019 25.9966 22.8004V20.9944Z" fill="white" stroke="#2E9BFF" stroke-width="1.5" stroke-linejoin="bevel"/>
</svg>
