<svg width="48" height="48" viewBox="0 0 48 48" fill="none" xmlns="http://www.w3.org/2000/svg">
<rect width="48" height="48" rx="24" fill="#EBF5FF"/>
<path d="M30.4636 8.57373H18.1591C16.7449 8.57373 15.5985 9.7082 15.5985 11.1077V37.5099C15.5985 38.9093 16.7449 40.0438 18.1591 40.0438H30.4636C31.8777 40.0438 33.0242 38.9093 33.0242 37.5099V11.1077C33.0242 9.7082 31.8777 8.57373 30.4636 8.57373Z" fill="#EBF5FF"/>
<path d="M33.0568 13.2452H15.5659V35.3722H33.0568V13.2452Z" fill="white"/>
<path fill-rule="evenodd" clip-rule="evenodd" d="M18.1591 9.14745C17.0445 9.14745 16.1644 10.0381 16.1644 11.1077V12.6715H32.4582V11.1077C32.4582 10.0381 31.5782 9.14745 30.4636 9.14745H18.1591ZM33.5901 13.2122V11.1077C33.5901 9.37835 32.1773 8 30.4636 8H18.1591C16.4454 8 15.0326 9.37835 15.0326 11.1077V13.2122L15 13.2452V35.3722L15.0326 35.4052V37.5099C15.0326 39.2392 16.4454 40.6175 18.1591 40.6175H30.4636C32.1773 40.6175 33.5901 39.2392 33.5901 37.5099V35.4053L33.6227 35.3722V13.2452L33.5901 13.2122ZM32.4582 13.819V34.7985H16.1644V13.819H32.4582ZM16.1644 35.9459H32.4582V37.5099C32.4582 38.5795 31.5782 39.4701 30.4636 39.4701H18.1591C17.0445 39.4701 16.1644 38.5795 16.1644 37.5099V35.9459ZM25.5676 11.3721H23.0551V10.2246H25.5676V11.3721ZM25.5676 38.3928H23.0551V37.2454H25.5676V38.3928Z" fill="#2E9BFF"/>
<path d="M22.4854 28.8761C22.2654 28.8761 22.06 28.7955 21.8694 28.6341L18.1734 24.9161C17.9974 24.7401 17.9094 24.5348 17.9094 24.3001C17.9094 24.0508 17.99 23.8455 18.1514 23.6841C18.3274 23.5081 18.5327 23.4201 18.7674 23.4201C19.0167 23.4201 19.2294 23.5081 19.4054 23.6841L22.4854 26.7641L29.2614 19.9661C29.4374 19.8048 29.6427 19.7241 29.8774 19.7241C30.1267 19.7241 30.332 19.8121 30.4934 19.9881C30.6547 20.1495 30.7354 20.3548 30.7354 20.6041C30.7354 20.8388 30.6547 21.0368 30.4934 21.1981L23.1014 28.6121C22.9254 28.7881 22.72 28.8761 22.4854 28.8761Z" fill="#2E9BFF"/>
</svg>
