<svg width="40" height="40" viewBox="0 0 40 40" fill="none" xmlns="http://www.w3.org/2000/svg">
<path d="M27.1817 2.86013H13.5102C11.9388 2.86013 10.665 4.12066 10.665 5.67561V35.0114C10.665 36.5663 11.9388 37.8269 13.5102 37.8269H27.1817C28.753 37.8269 30.0269 36.5663 30.0269 35.0114V5.67561C30.0269 4.12066 28.753 2.86013 27.1817 2.86013Z" fill="#EBF5FF"/>
<path d="M30.0631 8.05071H10.6288V32.6362H30.0631V8.05071Z" fill="white"/>
<path fill-rule="evenodd" clip-rule="evenodd" d="M13.5102 3.4976C12.2717 3.4976 11.2938 4.48716 11.2938 5.67561V7.41324H29.3981V5.67561C29.3981 4.48716 28.4202 3.4976 27.1817 3.4976H13.5102ZM30.6557 8.01397V5.67561C30.6557 3.75416 29.0859 2.22266 27.1817 2.22266H13.5102C11.606 2.22266 10.0362 3.75416 10.0362 5.67561V8.014L10 8.05071V32.6362L10.0362 32.6729V35.0114C10.0362 36.9328 11.606 38.4643 13.5102 38.4643H27.1817C29.0859 38.4643 30.6557 36.9328 30.6557 35.0114V32.673L30.6919 32.6362V8.05071L30.6557 8.01397ZM29.3981 8.68818V31.9987H11.2938V8.68818H29.3981ZM11.2938 33.2737H29.3981V35.0114C29.3981 36.1998 28.4202 37.1894 27.1817 37.1894H13.5102C12.2717 37.1894 11.2938 36.1998 11.2938 35.0114V33.2737ZM21.7418 5.96939H18.9501V4.69444H21.7418V5.96939ZM21.7418 35.9925H18.9501V34.7175H21.7418V35.9925Z" fill="#2E9BFF"/>
<path d="M18.0002 22.754C18.1922 22.754 18.3576 22.6847 18.4962 22.546L22.4802 18.578C22.6189 18.4393 22.6882 18.274 22.6882 18.082C22.6882 17.89 22.6189 17.7247 22.4802 17.586C22.3416 17.4473 22.1762 17.378 21.9842 17.378C21.7922 17.378 21.6269 17.4473 21.4882 17.586L17.5042 21.554C17.3656 21.6927 17.2962 21.858 17.2962 22.05C17.2962 22.242 17.3709 22.4073 17.5202 22.546C17.6696 22.6847 17.8296 22.754 18.0002 22.754ZM20.0002 25.026L20.0162 25.042C19.6749 25.3727 19.2909 25.6233 18.8642 25.794C18.4376 25.9753 17.9896 26.066 17.5202 26.066C17.0509 26.066 16.6029 25.9753 16.1762 25.794C15.7496 25.6233 15.3656 25.3727 15.0242 25.042C14.6936 24.7007 14.4376 24.3167 14.2562 23.89C14.0856 23.4633 14.0002 23.0207 14.0002 22.562C14.0002 22.0927 14.0856 21.6447 14.2562 21.218C14.4376 20.7807 14.6936 20.3967 15.0242 20.066L16.0162 19.074C16.1549 18.9353 16.3202 18.866 16.5122 18.866C16.7042 18.866 16.8696 18.9353 17.0082 19.074C17.1469 19.2127 17.2162 19.378 17.2162 19.57C17.2162 19.762 17.1469 19.9273 17.0082 20.066L16.0162 21.058C15.8136 21.2607 15.6589 21.49 15.5522 21.746C15.4562 22.002 15.4082 22.2687 15.4082 22.546C15.4082 22.8233 15.4562 23.09 15.5522 23.346C15.6589 23.602 15.8136 23.8313 16.0162 24.034C16.2829 24.3007 16.5976 24.482 16.9602 24.578C17.3229 24.6633 17.6856 24.6633 18.0482 24.578C18.4216 24.482 18.7416 24.3007 19.0082 24.034L20.0002 23.042C20.1389 22.9033 20.3042 22.834 20.4962 22.834C20.6882 22.834 20.8536 22.9033 20.9922 23.042C21.1309 23.1807 21.2002 23.346 21.2002 23.538C21.2002 23.73 21.1309 23.8953 20.9922 24.034L20.0002 25.026ZM23.9842 21.058L23.9682 21.042C23.8402 21.17 23.6749 21.234 23.4722 21.234C23.2696 21.234 23.0989 21.17 22.9602 21.042C22.8322 20.9033 22.7682 20.738 22.7682 20.546C22.7682 20.354 22.8376 20.1887 22.9762 20.05L23.9682 19.058C24.1709 18.8553 24.3256 18.626 24.4322 18.37C24.5389 18.114 24.5922 17.8473 24.5922 17.57C24.5922 17.2927 24.5389 17.026 24.4322 16.77C24.3256 16.514 24.1709 16.2847 23.9682 16.082C23.7016 15.8153 23.3869 15.6393 23.0242 15.554C22.6616 15.458 22.2936 15.458 21.9202 15.554C21.5576 15.6393 21.2429 15.8153 20.9762 16.082L19.9842 17.074C19.8456 17.2127 19.6802 17.282 19.4882 17.282C19.2962 17.282 19.1309 17.2127 18.9922 17.074C18.8536 16.9353 18.7842 16.77 18.7842 16.578C18.7842 16.386 18.8536 16.2207 18.9922 16.082L19.9842 15.09C20.3256 14.7593 20.7096 14.5087 21.1362 14.338C21.5629 14.1567 22.0109 14.066 22.4802 14.066C22.9602 14.066 23.4136 14.1567 23.8402 14.338C24.2669 14.5087 24.6456 14.7647 24.9762 15.106C25.3069 15.4367 25.5576 15.8153 25.7282 16.242C25.9096 16.6687 26.0002 17.1167 26.0002 17.586C26.0002 18.0447 25.9096 18.4873 25.7282 18.914C25.5576 19.3407 25.3069 19.7247 24.9762 20.066L23.9842 21.058Z" fill="#2E9BFF"/>
</svg>
