<svg width="58" height="58" viewBox="0 0 58 58" fill="none" xmlns="http://www.w3.org/2000/svg">
<g id="img_lowprice">
<g id="opacity" opacity="0.3">
<path id="Subtract" d="M53.3465 51.5265C53.799 51.5265 54.1658 51.8933 54.1658 52.3458C54.1658 52.7983 53.7989 53.1652 53.3464 53.1652H5.81943C5.3669 53.1652 5 52.7983 5 52.3458V40.4975C5 40.045 5.3669 39.6781 5.81943 39.6781C6.27196 39.6781 6.63886 40.045 6.63886 40.4975V51.5266H14.1162V34.7979C14.1162 34.3454 14.4831 33.9785 14.9356 33.9785C15.3881 33.9785 15.755 34.3454 15.755 34.7979V51.5266H23.642V46.27C23.642 45.8174 24.0089 45.4505 24.4615 45.4505C24.914 45.4505 25.2809 45.8174 25.2809 46.27V51.5266H36.3432V46.1675C36.3432 45.715 36.7101 45.3481 37.1626 45.3481C37.6152 45.3481 37.9821 45.715 37.9821 46.1675V51.5266L53.3465 51.5265Z" fill="#FF8267"/>
</g>
<g id="icon">
<path id="Subtract_2" d="M51 39.9912C51 38.5989 49.6205 37.6096 48.3034 38.0947L38.3876 27.6368C38.9417 26.3136 37.9731 24.8335 36.5354 24.8335C35.7134 24.8335 35.0061 25.3332 34.6953 26.0461H25.9198C25.5422 25.1795 24.6038 24.6666 23.6411 24.8835L16.4727 15.0358C17.2488 13.6987 16.2889 12 14.738 12C13.4649 12 12.4713 13.2001 12.7889 14.5019L5.45148 20.1183C5.12856 20.3615 4.99632 20.5077 5.00005 20.9885C5.00005 20.9885 5.0011 20.9906 5.00167 20.9951C5.06274 21.4767 5.5233 21.7861 5.97873 21.6797C5.99511 21.6759 6.00731 21.6746 6.01843 21.6733L6.02898 21.6721C6.13616 21.6581 6.23529 21.5817 9.39487 19.1488C10.4623 18.3268 11.8796 17.2355 13.7638 15.7873C14.1767 16.0187 14.671 16.1059 15.1767 15.9921L22.3451 25.8399C21.5689 27.177 22.5289 28.8756 24.0797 28.8756C24.9018 28.8756 25.6091 28.3759 25.9198 27.663H34.6953C35.1144 28.6245 36.2067 29.1254 37.223 28.7511L47.1388 39.209C46.5332 40.6545 47.6532 42 49.0707 42C50.1049 42 51 40.9879 51 39.9912Z" fill="#FF8267"/>
<path id="Subtract_3" d="M52.6019 35.2495L48.3954 39.4629C47.6562 40.0189 48.0146 41.1039 48.9644 40.992C49.1057 40.9735 53.7488 36.3278 53.7488 36.3278C53.7488 36.3278 54.2803 35.7477 53.7971 35.2612C53.4237 34.884 52.9042 34.9467 52.6019 35.2495Z" fill="#FF8267"/>
<path id="Vector" d="M48.8173 28.7302C49.1945 29.09 49.8056 29.0899 50.1827 28.7302L52.7172 26.3118C53.0943 25.9519 53.0943 25.3687 52.7172 25.0088C52.3401 24.6492 51.7289 24.6492 51.3517 25.0088L50.4655 25.8545V13.9213C50.4655 13.4125 50.0332 13 49.5 13C48.9668 13 48.5345 13.4125 48.5345 13.9213V25.8545L47.6483 25.0088C47.2711 24.6492 46.6599 24.6492 46.2828 25.0088C45.9057 25.3687 45.9057 25.9519 46.2828 26.3118L48.8173 28.7302Z" fill="#FF8267"/>
</g>
</g>
</svg>
