<svg width="56" height="56" viewBox="0 0 56 56" fill="none" xmlns="http://www.w3.org/2000/svg">
<g id="img_theme">
<g id="icon">
<path id="Vector" opacity="0.3" d="M4.21078 11.0971L14.7783 17.5804C15.0649 17.7558 15.4041 17.8247 15.7363 17.7748C16.0686 17.7249 16.3726 17.5594 16.595 17.3075C17.5241 16.2589 18.6567 15.4101 19.9239 14.8128C20.2204 14.6722 20.4597 14.4343 20.6021 14.1387C20.7445 13.8432 20.7813 13.5078 20.7065 13.1883L17.8104 1.09583C17.764 0.901758 17.6774 0.719566 17.5562 0.561006C17.4351 0.402446 17.282 0.271039 17.107 0.175257C16.9319 0.0794756 16.7387 0.0214463 16.5398 0.00491116C16.341 -0.011624 16.1409 0.0137022 15.9524 0.0792565C11.0933 1.76821 6.8595 4.88907 3.80852 9.03096C3.69099 9.19018 3.60783 9.37208 3.56429 9.56514C3.52076 9.75819 3.51781 9.95819 3.55563 10.1524C3.59345 10.3467 3.67121 10.531 3.78399 10.6936C3.89677 10.8562 4.0421 10.9936 4.21078 11.0971ZM16.2628 1.71989L19.06 13.3975C17.71 14.0581 16.4966 14.9671 15.4832 16.0769L5.28048 9.81744C8.07321 6.10499 11.8906 3.29029 16.2628 1.71989Z" fill="#FF8267"/>
<path id="Vector_2" opacity="0.25" d="M18.2233 35.9652C18.3845 36.111 18.5968 36.1874 18.814 36.1776C19.0312 36.1678 19.2358 36.0727 19.3832 35.913C19.5307 35.7532 19.6091 35.5417 19.6015 35.3244C19.5939 35.1071 19.5008 34.9016 19.3425 34.7525C17.8772 33.3961 16.8299 31.6493 16.3237 29.7178C15.8176 27.7862 15.8737 25.7503 16.4855 23.8496C16.5855 23.545 16.5798 23.2155 16.4692 22.9146C16.3586 22.6136 16.1497 22.3588 15.8763 22.1913L5.24175 15.6661C5.07018 15.5608 4.87827 15.4929 4.67862 15.467C4.47897 15.441 4.27609 15.4576 4.0833 15.5156C3.89051 15.5736 3.71216 15.6717 3.55996 15.8035C3.40776 15.9353 3.28516 16.0978 3.20019 16.2803C0.751864 21.5117 0.162235 27.4221 1.52879 33.0341C2.92333 38.8442 6.30104 43.9858 11.0797 47.5728C11.255 47.7021 11.4743 47.7569 11.6898 47.7252C11.9053 47.6935 12.0996 47.5779 12.2302 47.4035C12.3608 47.2292 12.4171 47.0103 12.3869 46.7945C12.3567 46.5788 12.2425 46.3838 12.069 46.2519C7.59803 42.8961 4.43779 38.0857 3.13303 32.6498C1.87474 27.483 2.38864 22.0432 4.59227 17.2035L14.8637 23.506C14.1949 25.6885 14.1554 28.0154 14.7496 30.2193C15.3439 32.4232 16.5479 34.4148 18.2233 35.9652Z" fill="#FF8267"/>
<path id="Vector_3" d="M51.0536 21.2217C49.5886 15.1072 45.9067 9.75391 40.721 6.19853C35.5352 2.64315 29.2146 1.13867 22.9831 1.97643C22.7875 2.00326 22.5996 2.07078 22.4316 2.17464C22.2637 2.2785 22.1193 2.41639 22.0079 2.57944C21.8965 2.74248 21.8204 2.92706 21.7847 3.12128C21.7489 3.3155 21.7542 3.51506 21.8003 3.70709L24.6683 15.6818C24.746 15.997 24.9291 16.2762 25.1872 16.4731C25.4452 16.6701 25.7629 16.7729 26.0874 16.7647C27.5235 16.7264 28.9519 16.9865 30.2824 17.5283C31.6129 18.0701 32.8166 18.882 33.8174 19.9126C33.8916 19.9921 33.9808 20.056 34.0799 20.1005C34.1791 20.145 34.2861 20.1694 34.3947 20.172C34.5033 20.1747 34.6114 20.1557 34.7126 20.1161C34.8138 20.0765 34.9061 20.0171 34.984 19.9414C35.062 19.8657 35.1241 19.7752 35.1666 19.6752C35.2092 19.5752 35.2313 19.4677 35.2318 19.3591C35.2323 19.2504 35.2112 19.1427 35.1696 19.0423C35.1279 18.942 35.0667 18.8509 34.9895 18.7745C33.8513 17.6027 32.4864 16.6751 30.978 16.0481C29.4697 15.4211 27.8494 15.1079 26.216 15.1275L23.446 3.56385C35.4712 2.05498 46.6307 9.77149 49.4645 21.6023C50.4988 25.9213 50.3013 30.4439 48.8946 34.6564C47.4878 38.8688 44.9281 42.6025 41.5061 45.4334C38.0841 48.2643 33.9369 50.0789 29.5355 50.6714C25.134 51.2638 20.6546 50.6102 16.6059 48.7849L22.8462 38.6139C24.8702 39.2345 27.0222 39.3091 29.0843 38.83C31.1463 38.3509 33.045 37.3352 34.5881 35.8859C36.1311 34.4365 37.2636 32.605 37.8707 30.577C38.4778 28.5489 38.538 26.3964 38.0452 24.3376C38.0203 24.2333 37.975 24.1349 37.9119 24.048C37.8489 23.9612 37.7694 23.8876 37.678 23.8314C37.5865 23.7753 37.4849 23.7378 37.3789 23.7209C37.2729 23.704 37.1647 23.7082 37.0603 23.7332C36.9559 23.7582 36.8575 23.8035 36.7707 23.8665C36.6838 23.9295 36.6102 24.0091 36.5541 24.1005C36.498 24.192 36.4604 24.2936 36.4436 24.3996C36.4267 24.5055 36.4309 24.6138 36.4559 24.7182C36.8844 26.5087 36.8287 28.3811 36.2945 30.1431C35.7603 31.905 34.7668 33.493 33.416 34.7441C32.0652 35.9952 30.4058 36.8643 28.6082 37.2621C26.8105 37.6599 24.9394 37.5722 23.1869 37.0078C22.8852 36.9089 22.559 36.9147 22.261 37.0242C21.963 37.1337 21.7107 37.3405 21.5448 37.6112L15.084 48.1418C14.9797 48.3117 14.9125 48.5017 14.8868 48.6994C14.8611 48.8971 14.8775 49.0981 14.9349 49.289C14.9924 49.4799 15.0895 49.6565 15.22 49.8072C15.3505 49.958 15.5114 50.0794 15.6921 50.1636C19.0176 51.7191 22.6436 52.527 26.3149 52.5305C28.3249 52.5285 30.3277 52.2897 32.2818 51.8191C36.0595 50.9253 39.5788 49.1687 42.5639 46.687C46.8394 43.1371 49.8371 38.2866 51.1001 32.8749C51.998 29.0405 51.9821 25.0488 51.0536 21.2217Z" fill="#FF8267"/>
</g>
</g>
</svg>
