<svg width="56" height="56" viewBox="0 0 56 56" fill="none" xmlns="http://www.w3.org/2000/svg">
<g id="img_gross">
<g id="icon">
<g id="opacity" opacity="0.3">
<path id="Vector" d="M52.6249 39.2576H10.553C10.0698 39.2576 9.67805 39.6494 9.67805 40.1326C9.67805 40.6158 10.0698 41.0076 10.553 41.0076C11.0363 41.0076 51.6013 41.0152 51.6013 41.0152C51.1216 44.052 48.5508 46.2575 45.4764 46.2575H9.02365C5.90703 46.2575 3.355 44.0021 2.89749 41.0076H5.92202C6.40523 41.0076 6.79701 40.6158 6.79701 40.1326V9.50778C6.79701 8.06043 7.97454 6.8828 9.422 6.8828H45.078C46.5255 6.8828 47.703 8.06043 47.703 9.50778V35.6639C47.703 36.1471 48.0948 36.5389 48.578 36.5389C49.0612 36.5389 49.453 36.1471 49.453 35.6639V9.50778C49.453 7.09542 47.4904 5.13281 45.078 5.13281H9.422C7.00963 5.13281 5.04702 7.09542 5.04702 9.50778V39.2576H1.87517C1.33847 39.2576 0.927766 39.7373 1.01067 40.2677L1.1697 41.2855C1.77356 45.1494 5.10412 48.0075 9.02365 48.0075H45.4764C49.387 48.0075 52.7251 45.158 53.3303 41.2855L53.4893 40.2677C53.5721 39.7375 53.1618 39.2576 52.6249 39.2576Z" fill="#2E9BFF"/>
</g>
<path id="Union" d="M42.8313 16.3661C42.8313 17.6688 41.7605 18.7321 40.4327 18.7321C40.2298 18.7321 40.0329 18.7075 39.8448 18.661L34.0852 25.6882C34.1286 25.8667 34.1516 26.0531 34.1516 26.245C34.1516 27.5477 33.0808 28.6111 31.753 28.6111C30.4633 28.6111 29.416 27.6143 29.3571 26.3567L24.6512 22.6889C24.2308 23.0489 23.6819 23.2673 23.0802 23.2673C22.7406 23.2673 22.4178 23.1982 22.1255 23.0735L16.5207 30.3498C16.6972 30.6796 16.7971 31.0559 16.7971 31.4559C16.7971 32.7587 15.7263 33.822 14.3986 33.822C13.0708 33.822 12 32.7657 12 31.4559C12 30.1461 13.0708 29.0898 14.3986 29.0898C14.5788 29.0898 14.7544 29.1093 14.9232 29.1463L20.7729 21.5519C20.7135 21.3453 20.6816 21.127 20.6816 20.9012C20.6816 19.5914 21.7524 18.5352 23.0802 18.5352C24.3723 18.5352 25.4211 19.5355 25.4764 20.7963L30.1765 24.4597C30.5976 24.0977 31.1487 23.8789 31.753 23.8789C32.1257 23.8789 32.4781 23.9621 32.7922 24.1107L38.2806 17.4144C38.1228 17.0987 38.0342 16.7429 38.0342 16.3661C38.0342 15.0563 39.105 14 40.4327 14C41.7605 14 42.8313 15.0563 42.8313 16.3661Z" fill="#2E9BFF"/>
</g>
</g>
</svg>
