<svg width="56" height="56" viewBox="0 0 56 56" fill="none" xmlns="http://www.w3.org/2000/svg">
<g id="img_low price-A">
<g id="icon">
<path id="Vector" opacity="0.5" d="M45.1146 20.6917C44.9184 20.2162 45.1446 19.6718 45.62 19.4754C46.0955 19.2793 46.6399 19.5055 46.8363 19.9808C50.6624 29.2452 48.2223 40.246 40.106 46.9824L41.1744 51.4883C41.706 53.7304 40.0053 55.8771 37.7045 55.8771C36.484 55.8771 35.3619 55.2637 34.7029 54.2365C34.4253 53.8034 34.5511 53.2274 34.9841 52.9497C35.4171 52.672 35.9931 52.798 36.2708 53.2308C36.5855 53.7215 37.1214 54.0145 37.7045 54.0145C38.8054 54.0145 39.6156 52.9872 39.362 51.9178L38.4836 48.2133C30.4931 53.756 19.9197 53.7768 11.9112 48.2826L11.0492 51.9178C10.7956 52.9872 11.6059 54.0145 12.7068 54.0145C13.2898 54.0145 13.8258 53.7216 14.1406 53.2308C14.4183 52.7978 14.9943 52.6717 15.4273 52.9498C15.8602 53.2274 15.986 53.8035 15.7084 54.2365C15.0494 55.2637 13.9272 55.8771 12.7068 55.8771C10.4025 55.8771 8.70612 53.7269 9.23694 51.4883L10.2864 47.0626C5.04255 42.7574 1.69141 36.2273 1.69141 28.9288C1.69141 15.9951 12.2138 5.47266 25.1475 5.47266C29.7145 5.47266 34.1415 6.78631 37.9499 9.27161C38.3806 9.55262 38.5019 10.1297 38.2208 10.5604C37.94 10.9911 37.363 11.1126 36.932 10.8312C33.4272 8.54418 29.3521 7.33518 25.1475 7.33518C13.2408 7.33518 3.55393 17.022 3.55393 28.9288C3.55393 40.8355 13.2408 50.5224 25.1475 50.5224C37.0542 50.5224 46.7411 40.8355 46.7411 28.9288C46.7411 26.0761 46.1939 23.3047 45.1146 20.6917Z" fill="#FF8267"/>
<path id="Vector_2" opacity="0.2" d="M41.877 23.0793C41.7121 22.6017 41.1827 22.3413 40.6967 22.5149C40.2194 22.6799 39.959 23.2095 40.1326 23.6958C43.6908 33.8545 36.1145 44.5256 25.362 44.5256C16.7356 44.5256 9.71482 37.5013 9.71482 28.8707C9.71482 20.24 16.7443 13.2244 25.3707 13.2244C29.2673 13.2244 32.9469 14.6397 35.8195 17.2271L37.1299 15.9161C33.9015 12.9813 29.7619 11.375 25.3707 11.375C15.7203 11.375 7.875 19.2242 7.875 28.8793C7.875 38.5345 15.7203 46.3837 25.3707 46.3837C37.3729 46.3837 45.869 34.471 41.877 23.0793Z" fill="#FF8267"/>
<path id="Vector_3" opacity="0.15" d="M13.6377 28.8877C13.6377 35.3563 18.9055 40.6006 25.3622 40.6006C33.1294 40.6006 38.7964 33.1161 36.6181 25.6056C36.4792 25.1194 35.9672 24.8328 35.4726 24.9718C34.9866 25.1107 34.7002 25.623 34.839 26.1179C36.6702 32.4389 31.9057 38.7512 25.3535 38.7512C19.9122 38.7512 15.4862 34.323 15.4862 28.879C15.4862 23.4349 19.9122 19.0067 25.3535 19.0067C27.7141 19.0067 29.9357 19.8229 31.7148 21.3337L33.0252 20.0226C30.899 18.1732 28.2087 17.166 25.3535 17.166C18.8881 17.166 13.6377 22.4277 13.6377 28.8877Z" fill="#FF8267"/>
<circle id="Vector_4" cx="25.5" cy="28.5" r="3.5" fill="#FF8267"/>
<path id="Vector_5" d="M53.473 4.91159C53.0343 4.64304 52.4612 4.78063 52.1923 5.21902L49.1018 10.2616C48.5037 11.2371 47.3454 11.7546 46.2199 11.5503L44.0758 11.1605C48.8323 6.40393 48.5747 6.71392 48.6708 6.45888C48.7522 6.24306 48.6925 6.72685 49.1421 1.00577C49.2014 0.249353 48.3759 -0.258649 47.727 0.138766L42.6845 3.2295C41.6096 3.88837 40.8384 4.97293 40.5686 6.20499C40.4412 6.78738 40.8858 7.33554 41.4793 7.33554C41.9073 7.33542 42.2928 7.03847 42.3882 6.6031C42.55 5.86368 43.0127 5.21285 43.6577 4.81753L47.1419 2.68204L46.9047 5.69745C31.6853 20.9168 28.6696 23.9326 24.2738 28.3283C23.6855 28.9168 24.11 29.9181 24.9323 29.9181C25.1706 29.9181 25.409 29.8272 25.5908 29.6454L42.4742 12.7621C46.2076 13.4409 46.161 13.4564 46.7065 13.4564C48.3051 13.4564 49.8383 12.6239 50.69 11.2346L53.7807 6.19207C54.0491 5.75368 53.9114 5.18037 53.473 4.91159Z" fill="#FF8267"/>
</g>
</g>
</svg>
