<svg width="56" height="56" viewBox="0 0 56 56" fill="none" xmlns="http://www.w3.org/2000/svg">
<g id="img_longterm">
<g id="icon">
<path id="Vector" opacity="0.3" d="M45.6127 5.18021H36.6871V3.48871C36.6871 2.49771 37.4933 1.6915 38.4843 1.6915C39.1688 1.6915 39.785 2.07198 40.0922 2.68451C40.3015 3.1021 40.8098 3.27062 41.2273 3.06129C41.6448 2.85187 41.8135 2.34357 41.604 1.92609C41.0081 0.738022 39.8127 0 38.4843 0C36.5607 0 34.9956 1.56506 34.9956 3.48871V5.18021C21.5019 5.18021 26.3916 5.18021 13.2176 5.18021V3.48871C13.2176 2.49771 14.0238 1.6915 15.0148 1.6915C15.598 1.6915 16.1475 1.97652 16.4845 2.45394C16.7539 2.83548 17.2815 2.9264 17.6631 2.65713C18.0447 2.38776 18.1357 1.86001 17.8662 1.47847C17.2128 0.552697 16.1468 0 15.0148 0C13.0911 0 11.5261 1.56506 11.5261 3.48871V9.40896C11.5261 9.87602 11.9048 10.2547 12.3718 10.2547C12.8389 10.2547 13.2176 9.87602 13.2176 9.40896V6.87171C26.4764 6.87171 21.7367 6.87171 34.9956 6.87171V9.40896C34.9956 9.87602 35.3743 10.2547 35.8414 10.2547C36.3084 10.2547 36.6871 9.87602 36.6871 9.40896V6.87171H45.6127C45.9958 6.87171 46.3075 7.18347 46.3075 7.5666V12.2028C46.3075 12.5859 45.9958 12.8977 45.6127 12.8977H5.77202C5.3889 12.8977 5.07724 12.5859 5.07724 12.2028V7.5666C5.07724 7.18347 5.3889 6.87171 5.77202 6.87171H8.77401C9.24107 6.87171 9.61976 6.49303 9.61976 6.02596C9.61976 5.5589 9.24107 5.18021 8.77401 5.18021H5.77202C4.45625 5.18021 3.38574 6.25072 3.38574 7.5666V12.2028C3.38574 13.5187 4.45625 14.5892 5.77202 14.5892H44.7217V41.5142L38.3786 47.8573V43.2772C38.3786 42.9646 38.6329 42.7102 38.9455 42.7102H40.5578C41.0248 42.7102 41.4035 42.3315 41.4035 41.8645C41.4035 41.3974 41.0248 41.0187 40.5578 41.0187H38.9455C37.7002 41.0187 36.6871 42.0318 36.6871 43.2772V49.0534H7.50877C7.04244 49.0534 6.66302 48.674 6.66302 48.2077V18.7667C6.66302 18.2997 6.28433 17.921 5.81727 17.921C5.3502 17.921 4.97152 18.2997 4.97152 18.7667V48.2077C4.97152 49.6068 6.10979 50.7449 7.50877 50.7449C39.6727 50.7449 37.6186 50.7762 37.8488 50.6833C38.0834 50.5895 37.6313 50.9969 46.1655 42.4626C46.3241 42.304 46.4132 42.0889 46.4132 41.8646V14.4506C47.3363 14.1207 47.999 13.2379 47.999 12.2028V7.5666C47.999 6.25072 46.9285 5.18021 45.6127 5.18021Z" fill="#3AD1A9"/>
<path id="Vector_2" d="M30.8475 19.813C30.8475 19.364 30.4786 19 30.0243 19H23.4433C21.6287 19 20.1525 20.4588 20.1525 22.252V24.8943H14.2908C12.4762 24.8943 11 26.3532 11 28.1463V40.748C11 42.5412 12.4762 44 14.2908 44H27.5567C28.3289 44 29.0796 43.7303 29.6705 43.2404C30.0188 42.9519 30.0642 42.4391 29.7722 42.095C29.4801 41.7509 28.9611 41.7061 28.6132 41.9946C28.318 42.2392 27.9428 42.374 27.5567 42.374H21.7979V38.2073H36.7092C38.5238 38.2073 40 36.7485 40 34.9553V22.252C40 20.4588 38.5238 19 36.7092 19H34.6011C34.1467 19 33.7784 19.364 33.7784 19.813C33.7784 20.262 34.1467 20.626 34.6011 20.626H36.7092C37.6164 20.626 38.3546 21.3555 38.3546 22.252V24.8943H30.8475V19.813ZM14.2908 26.5203H20.1525V30.687H12.6454V28.1463C12.6454 27.2498 13.3836 26.5203 14.2908 26.5203ZM21.7979 26.5203H29.2021V30.687H21.7979V26.5203ZM12.6454 32.313H20.1525V36.5813H12.6454V32.313ZM20.1525 42.374H14.2908C13.3836 42.374 12.6454 41.6445 12.6454 40.748V38.2073H20.1525V42.374ZM21.7979 32.313H29.2021V36.5813H21.7979V32.313ZM36.7092 36.5813H30.8475V32.313H38.3546V34.9553C38.3546 35.8518 37.6164 36.5813 36.7092 36.5813ZM38.3546 26.5203V30.687H30.8475V26.5203H38.3546ZM21.7979 24.8943V22.252C21.7979 21.3555 22.536 20.626 23.4433 20.626H29.2021V24.8943H21.7979Z" fill="#3AD1A9"/>
</g>
</g>
</svg>
