<svg width="56" height="56" viewBox="0 0 56 56" fill="none" xmlns="http://www.w3.org/2000/svg">
<g id="img_usa">
<g id="iocn">
<path id="Subtract" fill-rule="evenodd" clip-rule="evenodd" d="M29.7275 23.8124V12.9366C29.2436 12.8313 28.7709 12.7271 28.3081 12.6251C21.5987 11.1463 16.9741 10.127 10.4648 12.567V23.332C17.7463 21.4161 22.586 22.2624 29.7275 23.8124ZM14.2235 18.9041L14.2928 17.901L13.5308 17.2837C13.221 17.0344 13.0778 16.6285 13.1616 16.2368C13.2454 15.8451 13.5417 15.5357 13.9257 15.4387L14.8885 15.2002L15.2417 14.2601C15.379 13.8896 15.711 13.6294 16.0996 13.5878C16.4882 13.5462 16.8667 13.7304 17.0773 14.0637L17.6037 14.9196L18.5943 14.9617C18.991 14.9785 19.3435 15.223 19.5026 15.5914C19.6617 15.9599 19.5995 16.3879 19.3424 16.6944L18.7051 17.459L18.9406 18.4271C19.0475 18.8137 18.9264 19.2281 18.6289 19.4934C18.3329 19.7581 17.9149 19.8313 17.5483 19.6828L16.6271 19.304L15.8305 19.8582C15.6592 19.9708 15.4598 20.0317 15.2556 20.0336C15.0703 20.0329 14.8885 19.982 14.7292 19.8863C14.3879 19.6849 14.1912 19.3028 14.2235 18.9041ZM26.7991 19.365L26.7298 18.3618L27.4917 17.7445C27.8016 17.4952 27.9448 17.0893 27.861 16.6976C27.7771 16.3059 27.4809 15.9965 27.0969 15.8995L26.1341 15.661L25.7808 14.721C25.6436 14.3504 25.3115 14.0902 24.9229 14.0486C24.5344 14.007 24.1559 14.1913 23.9453 14.5245L23.4188 15.3804L22.4283 15.4225C22.0316 15.4394 21.6791 15.6838 21.52 16.0523C21.3609 16.4207 21.4231 16.8488 21.6802 17.1552L22.3175 17.9199L22.082 18.8879C21.9751 19.2745 22.0962 19.6889 22.3937 19.9542C22.6897 20.2189 23.1076 20.2921 23.4742 20.1437L24.3955 19.7648L25.1921 20.319C25.3633 20.4317 25.5628 20.4925 25.767 20.4944C25.9523 20.4937 26.1341 20.4429 26.2934 20.3471C26.6347 20.1457 26.8314 19.7637 26.7991 19.365Z" fill="#FF8267"/>
<path id="Shape" opacity="0.3" d="M8.83283 11.9739V50.6397C8.75596 51.0373 8.40439 51.322 7.99951 51.3147H7.2162C6.79235 51.3177 6.43373 51.0022 6.38288 50.5814C6.38288 50.4897 6.38288 51.0147 6.38288 17.3488C6.38288 16.8885 6.00979 16.5154 5.54957 16.5154C5.08934 16.5154 4.71625 16.8885 4.71625 17.3488C4.66625 50.6647 4.66625 50.4814 4.66625 50.773C4.8149 52.0387 5.89183 52.99 7.1662 52.9813C7.65145 53.0153 8.13906 52.9845 8.61617 52.8897C9.56776 52.6686 10.3034 51.9134 10.4995 50.9564C10.5661 50.5814 10.5411 51.173 10.5411 37.6233C24.0242 32.8234 37.8739 43.6982 51.9319 38.7066C52.5992 38.4498 53.0284 37.796 52.9985 37.0817V13.8155C52.9965 13.2859 52.7428 12.7889 52.3153 12.4764C51.8877 12.164 51.3371 12.0733 50.8319 12.2322C37.8572 16.5071 24.5075 6.56565 10.9411 10.6739C12.4889 8.99281 12.5589 6.42743 11.105 4.66447C9.6512 2.9015 7.11944 2.48167 5.17437 3.681C3.22929 4.88034 2.46748 7.33099 3.38981 9.42169C4.31214 11.5124 6.63572 12.6019 8.83283 11.9739ZM51.3319 37.09C37.9989 41.8232 24.4158 31.3151 10.4995 35.815V33.4151C23.8325 28.6818 37.4489 39.2066 51.3319 34.6484V37.09ZM10.4995 31.6484V29.2485C23.8325 24.5153 37.4572 35.0817 51.3319 30.5151V32.9151C37.9989 37.6483 24.3908 27.1485 10.4995 31.6484ZM31.3323 13.3155C37.8655 14.7321 44.6154 16.0904 51.3319 13.8905V16.2904C44.7404 18.6321 38.2155 17.2738 31.3323 15.7738V13.3155ZM31.3323 17.4821C38.1405 18.9571 44.6654 20.2237 51.3319 18.0571V20.457C44.7404 22.7986 38.2155 21.4403 31.3323 19.9404V17.4821ZM31.3323 21.6487C38.1405 23.1236 44.6654 24.3903 51.3319 22.2236V24.6236C44.7404 26.9652 38.2155 25.6069 31.3323 24.1069V21.6487ZM51.3319 26.3152V28.7152C37.9989 33.4817 24.3908 22.982 10.4995 27.4819V25.0819C23.8742 20.3237 37.4072 30.8901 51.3319 26.3152ZM29.6657 12.9155V23.7486C23.2409 22.3653 16.8493 21.2487 10.4995 23.3486V12.5655C16.8077 10.3239 23.0992 11.4905 29.6657 12.9155ZM7.58286 4.64903C9.19365 4.64903 10.4995 5.95484 10.4995 7.56563C10.4995 9.17643 9.19365 10.4822 7.58286 10.4822C5.97206 10.4822 4.66625 9.17643 4.66625 7.56563C4.66625 5.95484 5.97206 4.64903 7.58286 4.64903Z" fill="#FF8267"/>
<path id="Shape_2" opacity="0.2" d="M51.3326 22.2254C44.666 24.392 38.1412 23.1254 31.333 21.6504V24.1087C38.2162 25.6086 44.741 26.9669 51.3326 24.6253V22.2254Z" fill="#FF8267"/>
<path id="Shape_3" opacity="0.2" d="M51.3326 13.8894C44.6161 16.0894 37.8662 14.7311 31.333 13.3145V15.7727C38.2162 17.2727 44.741 18.631 51.3326 16.2894V13.8894Z" fill="#FF8267"/>
<path id="Shape_4" opacity="0.2" d="M10.499 29.2478V31.6477C24.3904 27.1478 37.9984 37.6476 51.3315 32.9144V30.5144C37.4568 35.081 23.8321 24.5146 10.499 29.2478Z" fill="#FF8267"/>
</g>
</g>
</svg>
