<svg width="56" height="56" viewBox="0 0 56 56" fill="none" xmlns="http://www.w3.org/2000/svg">
<g id="img_gross">
<g id="icon">
<g id="opacity" opacity="0.3">
<path id="Vector" d="M53.6249 39.2576H11.553C11.0698 39.2576 10.678 39.6494 10.678 40.1326C10.678 40.6158 11.0698 41.0076 11.553 41.0076C12.0363 41.0076 52.6013 41.0152 52.6013 41.0152C52.1216 44.052 49.5508 46.2575 46.4764 46.2575H10.0237C6.90703 46.2575 4.355 44.0021 3.89749 41.0076H6.92202C7.40523 41.0076 7.79701 40.6158 7.79701 40.1326V9.50778C7.79701 8.06043 8.97454 6.8828 10.422 6.8828H46.078C47.5255 6.8828 48.703 8.06043 48.703 9.50778V35.6639C48.703 36.1471 49.0948 36.5389 49.578 36.5389C50.0612 36.5389 50.453 36.1471 50.453 35.6639V9.50778C50.453 7.09542 48.4904 5.13281 46.078 5.13281H10.422C8.00963 5.13281 6.04702 7.09542 6.04702 9.50778V39.2576H2.87517C2.33847 39.2576 1.92777 39.7373 2.01067 40.2677L2.1697 41.2855C2.77356 45.1494 6.10412 48.0075 10.0237 48.0075H46.4764C50.387 48.0075 53.7251 45.158 54.3303 41.2855L54.4893 40.2677C54.5721 39.7375 54.1618 39.2576 53.6249 39.2576Z" fill="#FF8267"/>
</g>
<path id="Union" d="M43.8313 16.3661C43.8313 17.6688 42.7605 18.7321 41.4327 18.7321C41.2298 18.7321 41.0329 18.7075 40.8448 18.661L35.0852 25.6882C35.1286 25.8667 35.1516 26.0531 35.1516 26.245C35.1516 27.5477 34.0808 28.6111 32.753 28.6111C31.4633 28.6111 30.416 27.6143 30.3571 26.3567L25.6512 22.6889C25.2308 23.0489 24.6819 23.2673 24.0802 23.2673C23.7406 23.2673 23.4178 23.1982 23.1255 23.0735L17.5207 30.3498C17.6972 30.6796 17.7971 31.0559 17.7971 31.4559C17.7971 32.7587 16.7263 33.822 15.3986 33.822C14.0708 33.822 13 32.7657 13 31.4559C13 30.1461 14.0708 29.0898 15.3986 29.0898C15.5788 29.0898 15.7544 29.1093 15.9232 29.1463L21.7729 21.5519C21.7135 21.3453 21.6816 21.127 21.6816 20.9012C21.6816 19.5914 22.7524 18.5352 24.0802 18.5352C25.3723 18.5352 26.4211 19.5355 26.4764 20.7963L31.1765 24.4597C31.5976 24.0977 32.1487 23.8789 32.753 23.8789C33.1257 23.8789 33.4781 23.9621 33.7922 24.1107L39.2806 17.4144C39.1228 17.0987 39.0342 16.7429 39.0342 16.3661C39.0342 15.0563 40.105 14 41.4327 14C42.7605 14 43.8313 15.0563 43.8313 16.3661Z" fill="#FF8267"/>
</g>
</g>
</svg>
