<svg width="56" height="56" viewBox="0 0 56 56" fill="none" xmlns="http://www.w3.org/2000/svg">
<g id="img_shortterm">
<g id="icon">
<path id="Vector" d="M21.8765 19.246C22.109 19.246 22.3319 19.1537 22.4963 18.9893C22.6607 18.8249 22.7531 18.6019 22.7531 18.3695V16.8668C22.7505 16.636 22.657 16.4156 22.4929 16.2533C22.3288 16.091 22.1073 16 21.8765 16C21.6457 16 21.4243 16.091 21.2602 16.2533C21.0961 16.4156 21.0026 16.636 21 16.8668V18.3695C21 18.6019 21.0923 18.8249 21.2567 18.9893C21.4211 19.1537 21.644 19.246 21.8765 19.246Z" fill="#3AD1A9"/>
<path id="Vector_2" d="M22.7391 28.0458C23.178 28.17 23.5854 28.3863 23.9342 28.6803C24.2829 28.9743 24.565 29.3392 24.7616 29.7508C24.9583 30.1624 25.0649 30.6112 25.0745 31.0672C25.0841 31.5232 24.9963 31.9761 24.8172 32.3956C24.638 32.815 24.3715 33.1915 24.0354 33.4999C23.6993 33.8083 23.3014 34.0415 22.8681 34.184C22.4348 34.3265 21.9761 34.3751 21.5225 34.3264C21.069 34.2777 20.631 34.133 20.2378 33.9018L16.9975 37.1398C16.8331 37.3041 16.6101 37.3964 16.3776 37.3963C16.1451 37.3962 15.9222 37.3037 15.7578 37.1393C15.5935 36.9748 15.5012 36.7518 15.5013 36.5193C15.5014 36.2868 15.5939 36.0639 15.7583 35.8996L19.0248 32.6349C18.8006 32.2121 18.6739 31.7446 18.6539 31.2665C18.6339 30.7885 18.7211 30.312 18.9091 29.872C19.0971 29.432 19.3811 29.0396 19.7404 28.7236C20.0997 28.4077 20.5251 28.176 20.9855 28.0458V24.8864C20.9842 24.7705 21.0059 24.6554 21.0494 24.5479C21.0929 24.4404 21.1572 24.3427 21.2388 24.2602C21.3203 24.1778 21.4173 24.1123 21.5243 24.0677C21.6313 24.023 21.7461 24 21.862 24C21.978 24 22.0928 24.023 22.1998 24.0677C22.3068 24.1123 22.4038 24.1778 22.4853 24.2602C22.5669 24.3427 22.6312 24.4404 22.6747 24.5479C22.7182 24.6554 22.7399 24.7705 22.7386 24.8864L22.7391 28.0458ZM20.4048 31.1337C20.4048 31.422 20.4903 31.7039 20.6505 31.9436C20.8107 32.1833 21.0383 32.3701 21.3047 32.4805C21.571 32.5908 21.8641 32.6197 22.1469 32.5635C22.4297 32.5072 22.6894 32.3684 22.8933 32.1645C23.0971 31.9607 23.236 31.701 23.2922 31.4182C23.3485 31.1354 23.3196 30.8423 23.2093 30.576C23.099 30.3096 22.9122 30.0819 22.6725 29.9218C22.4328 29.7616 22.151 29.6761 21.8627 29.676C21.4762 29.6765 21.1056 29.8302 20.8323 30.1035C20.559 30.3767 20.4053 30.7473 20.4048 31.1337Z" fill="#3AD1A9"/>
<path id="Vector_3" d="M21.713 10.9806C17.3916 10.966 13.1903 12.4023 9.78236 15.0595C9.60031 15.2026 9.48224 15.4118 9.45393 15.6416C9.42561 15.8714 9.48934 16.103 9.63121 16.286C9.77308 16.4689 9.98157 16.5883 10.2112 16.6181C10.4408 16.6479 10.6728 16.5857 10.8567 16.445C13.9578 14.0275 17.7806 12.7208 21.7126 12.7343C31.4903 12.7338 39.4451 20.6885 39.4451 30.4649C39.4451 40.2412 31.4903 48.1965 21.713 48.1965C11.9358 48.1965 3.98171 40.2422 3.98171 30.4649C3.97829 27.1522 4.9054 23.9052 6.65742 21.0938C6.77916 20.8966 6.81786 20.6592 6.76504 20.4336C6.71222 20.2079 6.57218 20.0124 6.37557 19.8897C6.17895 19.767 5.94176 19.7272 5.71587 19.779C5.48997 19.8307 5.29378 19.9698 5.17018 20.1659C3.24433 23.2556 2.22507 26.8241 2.22852 30.4649C2.22852 41.2087 10.9692 49.9494 21.7129 49.9494C32.4567 49.9494 41.1977 41.2089 41.1977 30.4649C41.1977 19.7208 32.4573 10.9806 21.713 10.9806Z" fill="#3AD1A9"/>
</g>
<g id="opacity" opacity="0.3">
<path id="Vector_4" d="M53.9666 10.9336L47.127 2.68342C46.7724 2.25578 46.2281 2 45.6726 2C45.117 2 44.5727 2.25578 44.2181 2.68342L37.3784 10.9335C36.9208 11.4858 36.8183 12.2934 37.1233 12.9425C37.4284 13.5917 38.1156 14.0281 38.8328 14.0283H42.8562C43.3374 14.0337 43.7426 13.6329 43.7426 13.1517C43.7426 12.6705 43.3374 12.2698 42.8562 12.2752H38.8328C38.7811 12.2753 38.7315 12.2438 38.7095 12.197C38.6875 12.1502 38.695 12.0919 38.7281 12.0521L45.5677 3.80213C45.5934 3.77147 45.6325 3.75318 45.6725 3.75318C45.7125 3.75318 45.7517 3.77147 45.7773 3.80213L52.617 12.0524C52.65 12.0922 52.6574 12.1505 52.6354 12.1973C52.6134 12.2441 52.5638 12.2756 52.5121 12.2755C52.5121 12.2755 48.3875 12.2671 48.3386 12.2755C47.702 12.2755 47.188 12.4271 47.188 13.1215V50.7382C47.1826 51.2194 47.5834 51.6246 48.0645 51.6246C48.5457 51.6246 48.9465 51.2194 48.9411 50.7382V14.0289H52.5121C53.2293 14.0289 53.9167 13.5924 54.2217 12.9433C54.5268 12.2941 54.4243 11.4859 53.9666 10.9336Z" fill="#3AD1A9"/>
<path id="Vector_5" d="M21.2794 42.443V43.9456C21.2781 44.0615 21.2998 44.1765 21.3432 44.284C21.3867 44.3915 21.4511 44.4893 21.5326 44.5717C21.6141 44.6542 21.7112 44.7196 21.8182 44.7643C21.9252 44.809 22.04 44.832 22.1559 44.832C22.2718 44.832 22.3866 44.809 22.4936 44.7643C22.6006 44.7196 22.6977 44.6542 22.7792 44.5717C22.8607 44.4893 22.9251 44.3915 22.9685 44.284C23.012 44.1765 23.0337 44.0615 23.0324 43.9456V42.443C23.0337 42.3271 23.012 42.2121 22.9685 42.1046C22.9251 41.9971 22.8607 41.8993 22.7792 41.8169C22.6977 41.7344 22.6006 41.669 22.4936 41.6243C22.3866 41.5796 22.2718 41.5566 22.1559 41.5566C22.04 41.5566 21.9252 41.5796 21.8182 41.6243C21.7112 41.669 21.6141 41.7344 21.5326 41.8169C21.4511 41.8993 21.3867 41.9971 21.3432 42.1046C21.2998 42.2121 21.2781 42.3271 21.2794 42.443Z" fill="#3AD1A9"/>
<path id="Vector_6" d="M8.6764 31.3411H10.179C10.4115 31.3411 10.6345 31.2487 10.7989 31.0843C10.9633 30.9199 11.0556 30.697 11.0556 30.4645C11.0556 30.232 10.9633 30.009 10.7989 29.8446C10.6345 29.6802 10.4115 29.5879 10.179 29.5879H8.6764C8.44391 29.5879 8.22095 29.6802 8.05655 29.8446C7.89216 30.009 7.7998 30.232 7.7998 30.4645C7.7998 30.697 7.89216 30.9199 8.05655 31.0843C8.22095 31.2487 8.44391 31.3411 8.6764 31.3411Z" fill="#3AD1A9"/>
<path id="Vector_7" d="M12.0035 40.6176C12.1679 40.7819 12.3909 40.8742 12.6234 40.8742C12.8559 40.8742 13.0788 40.7819 13.2433 40.6176L14.3058 39.5551C14.4702 39.3907 14.5625 39.1677 14.5625 38.9352C14.5625 38.7027 14.4702 38.4798 14.3058 38.3154C14.1414 38.151 13.9185 38.0586 13.686 38.0586C13.4535 38.0586 13.2305 38.1509 13.0661 38.3153L12.0035 39.3784C11.8393 39.5428 11.7471 39.7656 11.7471 39.998C11.7471 40.2303 11.8393 40.4532 12.0035 40.6176Z" fill="#3AD1A9"/>
<path id="Vector_8" d="M30.0038 39.5551L31.0664 40.6171C31.1472 40.7012 31.2439 40.7684 31.351 40.8147C31.458 40.8609 31.5732 40.8854 31.6898 40.8866C31.8064 40.8878 31.9221 40.8657 32.03 40.8217C32.138 40.7776 32.2361 40.7124 32.3186 40.63C32.4011 40.5476 32.4662 40.4495 32.5103 40.3415C32.5544 40.2336 32.5766 40.1179 32.5754 40.0013C32.5742 39.8847 32.5498 39.7695 32.5036 39.6624C32.4573 39.5554 32.3902 39.4586 32.3061 39.3779L31.2436 38.3154C31.1622 38.234 31.0656 38.1694 30.9592 38.1253C30.8528 38.0813 30.7388 38.0586 30.6237 38.0586C30.5086 38.0586 30.3946 38.0813 30.2882 38.1253C30.1819 38.1694 30.0852 38.234 30.0038 38.3154C29.9224 38.3968 29.8579 38.4934 29.8138 38.5998C29.7697 38.7061 29.7471 38.8201 29.7471 38.9352C29.7471 39.0504 29.7697 39.1644 29.8138 39.2707C29.8579 39.3771 29.9224 39.4737 30.0038 39.5551Z" fill="#3AD1A9"/>
<path id="Vector_9" d="M13.0664 22.6157C13.2308 22.7801 13.4538 22.8724 13.6863 22.8724C13.9188 22.8724 14.1418 22.78 14.3061 22.6156C14.4705 22.4512 14.5629 22.2282 14.5629 21.9957C14.5629 21.7633 14.4705 21.5403 14.3061 21.3759L13.2436 20.3134C13.0792 20.149 12.8562 20.0566 12.6237 20.0566C12.3912 20.0566 12.1682 20.149 12.0038 20.3134C11.8394 20.4778 11.7471 20.7008 11.7471 20.9333C11.7471 21.1658 11.8394 21.3888 12.0038 21.5532L13.0664 22.6157Z" fill="#3AD1A9"/>
<path id="Vector_10" d="M42.6764 41.4492C42.1989 41.4492 41.7998 41.8484 41.7998 42.3258V50.7385C41.7998 51.216 42.1989 51.6151 42.6764 51.6151C43.1538 51.6151 43.553 51.216 43.553 50.7385V42.3258C43.553 41.8483 43.1539 41.4492 42.6764 41.4492Z" fill="#3AD1A9"/>
</g>
</g>
</svg>
