<svg width="56" height="56" viewBox="0 0 56 56" fill="none" xmlns="http://www.w3.org/2000/svg">
<g id="img_balance">
<g id="opacity" opacity="0.3">
<path id="Vector" d="M49.8751 28.874C49.5548 28.874 49.2468 28.6955 49.0928 28.391L42.0001 14.2055L34.9073 28.3893C34.6921 28.8215 34.1671 28.9965 33.7331 28.7813C33.3008 28.566 33.1258 28.0393 33.3411 27.607L41.2161 11.857C41.5136 11.2638 42.4848 11.2638 42.7823 11.857L50.6573 27.607C50.8726 28.0393 50.6976 28.566 50.2653 28.7813C50.1393 28.8425 50.0063 28.874 49.8751 28.874Z" fill="#61DABA"/>
<path id="Vector_2" d="M21.0001 28.874C20.6798 28.874 20.3718 28.6955 20.2178 28.391L13.1251 14.2055L6.03233 28.3893C5.81533 28.8215 5.29207 28.9965 4.85807 28.7813C4.42582 28.566 4.25082 28.0393 4.46607 27.607L12.3411 11.857C12.6386 11.2638 13.6098 11.2638 13.9073 11.857L21.7823 27.607C21.9976 28.0393 21.8226 28.566 21.3903 28.7813C21.2643 28.8425 21.1313 28.874 21.0001 28.874Z" fill="#61DABA"/>
<path id="Vector_3" d="M44.625 9.625H10.5C10.017 9.625 9.625 9.233 9.625 8.75C9.625 8.267 10.017 7.875 10.5 7.875H44.625C45.108 7.875 45.5 8.267 45.5 8.75C45.5 9.233 45.108 9.625 44.625 9.625Z" fill="#61DABA"/>
<path id="Vector_4" d="M26.6875 21.25L26.6875 12.875C26.6875 12.392 27.0795 12 27.5625 12C28.0455 12 28.4375 12.392 28.4375 12.875L28.4375 21.25C28.4375 21.733 28.0455 22.125 27.5625 22.125C27.0795 22.125 26.6875 21.733 26.6875 21.25Z" fill="#61DABA"/>
</g>
<g id="icon">
<path id="Vector_5" d="M42 36.75C38.7275 36.75 35.7543 34.9475 34.2388 32.046C34.0148 31.6173 34.181 31.0887 34.6098 30.8647C35.0385 30.6425 35.5687 30.807 35.791 31.2358C37.0037 33.558 39.382 35 42 35C45.563 35 48.5135 32.3242 48.9457 28.875H34.125C33.642 28.875 33.25 28.483 33.25 28C33.25 27.517 33.642 27.125 34.125 27.125H49.875C50.358 27.125 50.75 27.517 50.75 28C50.75 32.8247 46.8247 36.75 42 36.75Z" fill="#61DABA"/>
<path id="Vector_6" d="M13.125 36.75C9.8525 36.75 6.87925 34.9475 5.36375 32.046C5.13975 31.6173 5.306 31.0887 5.73475 30.8647C6.16175 30.6425 6.69375 30.807 6.916 31.2358C8.12875 33.558 10.507 35 13.125 35C16.688 35 19.6385 32.3242 20.0707 28.875H5.25C4.767 28.875 4.375 28.483 4.375 28C4.375 27.517 4.767 27.125 5.25 27.125H21C21.483 27.125 21.875 27.517 21.875 28C21.875 32.8247 17.9497 36.75 13.125 36.75Z" fill="#61DABA"/>
<path id="Vector_7" d="M26.6875 42.875L26.6875 24.5C26.6875 24.017 27.0795 23.625 27.5625 23.625C28.0455 23.625 28.4375 24.017 28.4375 24.5L28.4375 42.875C28.4375 43.358 28.0455 43.75 27.5625 43.75C27.0795 43.75 26.6875 43.358 26.6875 42.875Z" fill="#61DABA"/>
<path id="Vector_8" d="M41.16 48.125C41.1513 48.125 41.1373 48.1268 41.125 48.125H14.875C14.392 48.125 14 47.733 14 47.25C14 44.8368 15.9618 42.875 18.375 42.875H37.625C39.9455 42.875 41.8495 44.6915 41.9913 46.977C42.021 47.0645 42.0333 47.1555 42.0333 47.25C42.035 47.733 41.643 48.125 41.16 48.125ZM15.9005 46.375H40.0995C39.739 45.3565 38.766 44.625 37.625 44.625H18.375C17.234 44.625 16.261 45.3565 15.9005 46.375Z" fill="#61DABA"/>
</g>
</g>
</svg>
