<svg width="56" height="56" viewBox="0 0 56 56" fill="none" xmlns="http://www.w3.org/2000/svg">
<g id="img_defence">
<g id="icon">
<path id="Vector" opacity="0.3" d="M27.3248 51.8008L17.352 44.9993C13.1207 42.1187 10.5 37.1077 10.5 31.9266C10.5 31.2425 11.0281 30.7263 11.7103 30.7263C12.3901 30.7263 12.9207 31.2474 12.9207 31.9266C12.9207 36.2975 15.1313 40.5284 18.7123 42.9689L28.015 49.3103L37.3177 42.9689C40.8887 40.5384 43.1093 36.3075 43.1093 31.9266V11.4822C37.8374 11.9268 32.3464 10.9494 28.015 7.76141C23.7418 10.8771 18.088 11.627 12.9207 11.3922V27.4852C12.9207 28.1692 12.3926 28.6854 11.7103 28.6854C11.0306 28.6854 10.5 28.1643 10.5 27.4852V10.1219C10.5 9.46178 11.0502 8.90166 11.7003 8.90166C12.5606 8.94167 13.3408 8.96167 14.081 8.96167C19.8827 8.96167 24.3139 7.72141 27.2248 5.28089C27.6568 4.91061 28.3167 4.91589 28.7552 5.27089C31.8961 7.85143 35.8472 9.15171 40.4786 9.15171C41.6489 9.15171 42.8792 9.07169 44.1296 8.90166C44.8268 8.90166 45.5 9.33845 45.5 10.1019V31.9266C45.5 37.1077 42.8792 42.1087 38.648 44.9893L28.6852 51.7908C28.2851 52.0708 27.7249 52.0608 27.3248 51.8008Z" fill="#50B6FF"/>
<path id="Vector_2" d="M27.999 39C28.6181 39 29.0963 38.4545 29.0964 37.851V36.274H29.5248C30.7137 36.2671 31.8517 35.7677 32.6901 34.8849C33.5284 34.002 33.999 32.8076 33.999 31.5625C33.999 30.3174 33.5284 29.1229 32.6901 28.2401C31.8517 27.3572 30.7137 26.8578 29.5248 26.851H26.4732C25.1802 26.8405 24.1865 25.6987 24.1865 24.4377C24.1865 23.1766 25.1802 22.0348 26.4732 22.0244H31.3877C32.0117 22.0317 32.4973 21.4835 32.4973 20.8753C32.4973 20.2671 32.0117 19.7189 31.3877 19.7262H29.0964V18.1492C29.0964 17.5456 28.6182 17 27.999 17C27.3799 17 26.9017 17.5456 26.9017 18.1492V19.7262H26.4732C25.2843 19.733 24.1464 20.2325 23.308 21.1153C22.4696 21.9981 21.999 23.1926 21.999 24.4377C21.999 25.6828 22.4696 26.8772 23.308 27.7601C24.1464 28.6429 25.2843 29.1423 26.4732 29.1492H29.5248C30.825 29.1492 31.8292 30.2949 31.8292 31.5624C31.8292 32.8299 30.825 33.9756 29.5248 33.9756H24.5849C23.9658 33.9756 23.4876 34.5212 23.4876 35.1248C23.4876 35.7284 23.9658 36.274 24.5849 36.274H26.9017V37.851C26.9018 38.4545 27.38 39 27.999 39Z" fill="#50B6FF"/>
</g>
</g>
</svg>
