<svg width="56" height="56" viewBox="0 0 56 56" fill="none" xmlns="http://www.w3.org/2000/svg">
<g id="img_veryshortterm" clip-path="url(#clip0_3325_98484)">
<g id="icon">
<path id="Vector" d="M20.4324 23.8424C20.6649 23.8424 20.8879 23.75 21.0523 23.5856C21.2168 23.4212 21.3091 23.1982 21.3091 22.9656V21.3866C21.3104 21.2706 21.2887 21.1555 21.2452 21.048C21.2018 20.9405 21.1374 20.8427 21.0559 20.7603C20.9743 20.6778 20.8772 20.6124 20.7702 20.5677C20.6632 20.523 20.5484 20.5 20.4324 20.5C20.3165 20.5 20.2017 20.523 20.0946 20.5677C19.9876 20.6124 19.8905 20.6778 19.809 20.7603C19.7275 20.8427 19.6631 20.9405 19.6196 21.048C19.5761 21.1555 19.5544 21.2706 19.5557 21.3866V22.9656C19.5557 23.1982 19.6481 23.4211 19.8125 23.5856C19.9769 23.75 20.1999 23.8424 20.4324 23.8424Z" fill="#3AD1A9"/>
<path id="Vector_2" d="M19.5561 32.3397C19.0971 32.4647 18.6703 32.6866 18.3043 32.9905C17.9383 33.2943 17.6416 33.673 17.4343 34.1012C17.227 34.5293 17.1139 34.9969 17.1025 35.4724C17.0911 35.948 17.1818 36.4204 17.3684 36.858C17.555 37.2956 17.8331 37.6881 18.1842 38.0091C18.5352 38.3301 18.951 38.5721 19.4034 38.7189C19.8559 38.8657 20.3346 38.9138 20.8072 38.8601C21.2798 38.8063 21.7355 38.6519 22.1434 38.4072L25.5751 41.877C25.656 41.9589 25.7523 42.024 25.8585 42.0686C25.9646 42.1133 26.0785 42.1366 26.1936 42.1373C26.3088 42.1379 26.4229 42.1159 26.5295 42.0724C26.6362 42.0289 26.7332 41.9649 26.815 41.8839C26.8969 41.803 26.962 41.7067 27.0067 41.6005C27.0514 41.4944 27.0747 41.3805 27.0753 41.2654C27.076 41.1503 27.0539 41.0361 27.0105 40.9295C26.967 40.8229 26.9029 40.7259 26.822 40.644L23.358 37.1416C23.598 36.7005 23.7351 36.2108 23.7589 35.7092C23.7828 35.2076 23.6929 34.7071 23.4958 34.2452C23.2988 33.7833 22.9998 33.3719 22.6212 33.042C22.2426 32.712 21.7943 32.472 21.3098 32.34V27.4705C21.3072 27.2397 21.2137 27.0192 21.0496 26.8569C20.8855 26.6945 20.6639 26.6035 20.4331 26.6035C20.2023 26.6035 19.9807 26.6945 19.8166 26.8569C19.6525 27.0192 19.559 27.2397 19.5564 27.4705L19.5561 32.3397ZM22.0092 35.5517C22.0091 35.9323 21.8706 36.2999 21.6196 36.586C21.6118 36.5931 21.6035 36.5995 21.5959 36.6071C21.572 36.631 21.5495 36.6562 21.5285 36.6827C21.2672 36.9351 20.9267 37.0894 20.5646 37.1195C20.2025 37.1496 19.8412 37.0536 19.5418 36.8478C19.2425 36.642 19.0235 36.339 18.9219 35.9901C18.8203 35.6413 18.8425 35.2681 18.9846 34.9338C19.1267 34.5994 19.3801 34.3245 19.7017 34.1555C20.0233 33.9866 20.3935 33.934 20.7494 34.0067C21.1054 34.0795 21.4252 34.273 21.6548 34.5546C21.8844 34.8361 22.0096 35.1884 22.0092 35.5517Z" fill="#3AD1A9"/>
<path id="Vector_3" d="M20.4323 15.1193C15.9009 15.1038 11.4955 16.6098 7.92176 19.3959C7.83078 19.4664 7.75458 19.5542 7.69753 19.6542C7.64047 19.7542 7.60367 19.8645 7.58922 19.9787C7.57477 20.0929 7.58296 20.2088 7.61332 20.3199C7.64368 20.4309 7.69562 20.5349 7.76617 20.6259C7.83671 20.7169 7.92449 20.7931 8.02448 20.8501C8.12448 20.9072 8.23473 20.944 8.34894 20.9584C8.46316 20.9729 8.5791 20.9647 8.69016 20.9343C8.80121 20.904 8.90519 20.852 8.99617 20.7815C12.263 18.2348 16.2901 16.8583 20.4323 16.8726C30.7319 16.8726 39.1112 25.2518 39.1112 35.5514C39.1112 45.851 30.7319 54.2305 20.4323 54.2305C10.1327 54.2305 1.75343 45.8517 1.75343 35.5516C1.7498 32.0619 2.7264 28.6413 4.57197 25.6796C4.69374 25.4824 4.73244 25.245 4.67961 25.0193C4.62678 24.7936 4.48672 24.598 4.29007 24.4753C4.09341 24.3526 3.85617 24.3128 3.63023 24.3646C3.4043 24.4163 3.20806 24.5555 3.08444 24.7515C1.06504 27.9916 -0.00369222 31.7337 9.58399e-06 35.5516C9.58399e-06 46.8179 9.16581 55.9838 20.4323 55.9838C31.6988 55.9838 40.8646 46.818 40.8646 35.5516C40.8646 24.2851 31.6987 15.1193 20.4323 15.1193Z" fill="#3AD1A9"/>
<g id="opacity" opacity="0.3">
<path id="Vector_4" d="M55.8465 11.016C55.8095 10.7875 55.6837 10.5829 55.4964 10.4468C55.3091 10.3107 55.0757 10.2542 54.8469 10.2896C54.6181 10.325 54.4126 10.4495 54.2753 10.6358C54.1379 10.8221 54.0798 11.0552 54.1136 11.2842C54.3662 12.9101 54.259 14.5715 53.7998 16.1514C53.3405 17.7314 52.5403 19.1914 51.4555 20.4285C50.3707 21.6656 49.0279 22.6497 47.5215 23.3115C46.0151 23.9732 44.3819 24.2966 42.737 24.2586H42.7157C42.4848 24.2583 42.2631 24.3492 42.0987 24.5114C41.9344 24.6736 41.8407 24.8941 41.838 25.125C41.8352 25.3559 41.9237 25.5785 42.0842 25.7445C42.2447 25.9106 42.4641 26.0066 42.695 26.0117C42.8021 26.0144 42.909 26.0157 43.0156 26.0157C44.8904 26.0128 46.7424 25.6046 48.4447 24.819C50.147 24.0334 51.6593 22.8891 52.878 21.4644C54.0967 20.0397 54.9929 18.3684 55.5053 16.565C56.0177 14.7615 56.1341 12.8687 55.8465 11.016Z" fill="#3AD1A9"/>
<path id="Vector_5" d="M30.8752 14.0694H30.8877C31.1201 14.0661 31.3417 13.9706 31.5038 13.804C31.6658 13.6373 31.755 13.4131 31.7518 13.1806C31.7166 10.7967 32.44 8.46327 33.8173 6.51717C35.1947 4.57107 37.1548 3.11299 39.4147 2.35341C41.6747 1.59382 44.1176 1.57203 46.3907 2.29117C48.6639 3.01032 50.6497 4.4332 52.0616 6.35442C52.1298 6.44724 52.2156 6.52573 52.3141 6.58539C52.4126 6.64505 52.5219 6.68473 52.6358 6.70215C52.7496 6.71956 52.8658 6.71439 52.9777 6.68691C53.0895 6.65943 53.1949 6.61019 53.2877 6.542C53.3805 6.47381 53.459 6.388 53.5187 6.28948C53.5783 6.19096 53.618 6.08165 53.6354 5.96779C53.6528 5.85393 53.6477 5.73776 53.6202 5.62591C53.5927 5.51405 53.5435 5.40871 53.4753 5.31588C51.8434 3.09526 49.5481 1.4506 46.9208 0.619305C44.2934 -0.21199 41.4698 -0.186919 38.8576 0.690897C36.2454 1.56871 33.9797 3.25387 32.3876 5.50312C30.7954 7.75237 29.9591 10.4494 29.9994 13.2048C30.0026 13.4351 30.0962 13.6549 30.2601 13.8167C30.424 13.9785 30.6449 14.0693 30.8752 14.0694Z" fill="#3AD1A9"/>
<path id="Vector_6" d="M34.8861 36.2844H33.3835C33.151 36.2844 32.928 36.1921 32.7636 36.0277C32.5992 35.8633 32.5069 35.6403 32.5069 35.4078C32.5069 35.1754 32.5992 34.9524 32.7636 34.788C32.928 34.6236 33.151 34.5313 33.3835 34.5312H34.8861C35.1186 34.5313 35.3416 34.6236 35.5059 34.788C35.6703 34.9524 35.7627 35.1754 35.7627 35.4078C35.7627 35.6403 35.6703 35.8633 35.5059 36.0277C35.3416 36.1921 35.1186 36.2844 34.8861 36.2844Z" fill="#3AD1A9"/>
<path id="Vector_7" d="M30.4961 27.559C30.3317 27.7234 30.1087 27.8158 29.8762 27.8157C29.6437 27.8157 29.4207 27.7234 29.2564 27.559C29.092 27.3946 28.9996 27.1716 28.9996 26.9391C28.9996 26.7066 29.092 26.4836 29.2564 26.3193L30.3189 25.2568C30.4833 25.0924 30.7063 25 30.9388 25C31.1713 25 31.3943 25.0924 31.5587 25.2568C31.7231 25.4212 31.8154 25.6441 31.8154 25.8766C31.8154 26.1091 31.7231 26.3321 31.5587 26.4965L30.4961 27.559Z" fill="#3AD1A9"/>
<path id="Vector_8" d="M42.9976 20.574C43.2301 20.5739 43.4531 20.4816 43.6175 20.3172C43.7819 20.1528 43.8742 19.9298 43.8743 19.6973V18.7245H44.0814C44.9549 18.7245 45.7926 18.3775 46.4102 17.7599C47.0278 17.1423 47.3748 16.3046 47.3748 15.4311C47.3748 14.5577 47.0278 13.72 46.4102 13.1024C45.7926 12.4848 44.9549 12.1378 44.0814 12.1378H41.9131C41.5047 12.1378 41.113 11.9756 40.8242 11.6868C40.5355 11.398 40.3732 11.0063 40.3732 10.5979C40.3732 10.1895 40.5355 9.79778 40.8242 9.50899C41.113 9.2202 41.5047 9.05796 41.9131 9.05796H45.4049C45.6357 9.05538 45.8562 8.96188 46.0185 8.79774C46.1808 8.63361 46.2719 8.41209 46.2719 8.18125C46.2719 7.95041 46.1808 7.72889 46.0185 7.56475C45.8562 7.40062 45.6357 7.30711 45.4049 7.30454H43.8736V6.33174C43.8736 6.09923 43.7813 5.87625 43.6168 5.71185C43.4524 5.54744 43.2295 5.45508 42.997 5.45508C42.7645 5.45508 42.5415 5.54744 42.3771 5.71185C42.2127 5.87625 42.1203 6.09923 42.1203 6.33174V7.30454H41.9125C41.039 7.30454 40.2014 7.65151 39.5837 8.26913C38.9661 8.88676 38.6191 9.72443 38.6191 10.5979C38.6191 11.4713 38.9661 12.309 39.5837 12.9266C40.2014 13.5443 41.039 13.8912 41.9125 13.8912H44.0803C44.4887 13.8912 44.8804 14.0535 45.1692 14.3423C45.458 14.6311 45.6203 15.0227 45.6203 15.4311C45.6203 15.8396 45.458 16.2312 45.1692 16.52C44.8804 16.8088 44.4887 16.9711 44.0803 16.9711H40.5721C40.4561 16.9698 40.3411 16.9915 40.2335 17.035C40.126 17.0785 40.0282 17.1428 39.9458 17.2244C39.8633 17.3059 39.7979 17.403 39.7532 17.51C39.7085 17.617 39.6855 17.7318 39.6855 17.8478C39.6855 17.9637 39.7085 18.0786 39.7532 18.1856C39.7979 18.2926 39.8633 18.3897 39.9458 18.4712C40.0282 18.5527 40.126 18.6171 40.2335 18.6606C40.3411 18.7041 40.4561 18.7258 40.5721 18.7245H42.121V19.6973C42.121 19.9298 42.2133 20.1528 42.3777 20.3172C42.5421 20.4816 42.7651 20.574 42.9976 20.574Z" fill="#3AD1A9"/>
</g>
</g>
</g>
<defs>
<clipPath id="clip0_3325_98484">
<rect width="56" height="56" fill="white"/>
</clipPath>
</defs>
</svg>
