<svg width="21" height="21" viewBox="0 0 21 21" fill="none" xmlns="http://www.w3.org/2000/svg">
<g id="ico_setting" clip-path="url(#clip0_1162_14275)">
<g id="g2043">
<path id="path2031" fill-rule="evenodd" clip-rule="evenodd" d="M10.6402 0.541748C9.95446 0.541739 9.43599 0.710876 9.07195 1.01843C8.70791 1.32599 8.52518 1.72549 8.37104 2.1044C8.06275 2.86222 7.87825 3.57288 6.93176 4.11932C5.98526 4.66577 5.27866 4.47053 4.46823 4.35858C4.06301 4.30261 3.62503 4.26065 3.17665 4.42213C2.72827 4.58361 2.32323 4.94791 1.98036 5.54175C1.6375 6.13559 1.52593 6.669 1.61026 7.13805C1.69459 7.60709 1.94795 7.96462 2.19902 8.28757C2.70117 8.93346 3.22336 9.44884 3.22334 10.5417C3.22333 11.6347 2.70119 12.1482 2.19902 12.7941C1.94794 13.117 1.6946 13.4765 1.61026 13.9455C1.52592 14.4146 1.63751 14.9479 1.98036 15.5417C2.32321 16.1356 2.72828 16.498 3.17665 16.6595C3.62502 16.821 4.06301 16.7809 4.46823 16.7249C5.27866 16.613 5.98528 16.4177 6.93176 16.9642C7.87824 17.5106 8.06277 18.2213 8.37104 18.9792C8.52517 19.3581 8.70792 19.7557 9.07195 20.0632C9.43598 20.3708 9.95446 20.5417 10.6402 20.5417C11.3259 20.5418 11.8424 20.3708 12.2065 20.0632C12.5705 19.7557 12.7552 19.3581 12.9093 18.9792C13.2176 18.2213 13.4002 17.5106 14.3467 16.9642C15.2932 16.4177 16.0017 16.613 16.8121 16.7249C17.2173 16.7809 17.6553 16.821 18.1037 16.6595C18.5521 16.4981 18.9571 16.1356 19.3 15.5417C19.6428 14.9479 19.7544 14.4146 19.6701 13.9455C19.5858 13.4765 19.3323 13.117 19.0812 12.7941C18.5791 12.1482 18.0551 11.6347 18.0551 10.5417C18.0551 9.44884 18.5791 8.93345 19.0812 8.28757C19.3323 7.96463 19.5857 7.60709 19.6701 7.13805C19.7544 6.669 19.6428 6.1356 19.3 5.54175C18.9571 4.9479 18.5521 4.58546 18.1037 4.42397C17.6553 4.26247 17.2173 4.30262 16.8121 4.35858C16.0017 4.47051 15.2951 4.66579 14.3486 4.11932C13.4021 3.57286 13.2176 2.86223 12.9093 2.1044C12.7552 1.72549 12.5705 1.326 12.2065 1.01843C11.8425 0.710866 11.3259 0.541757 10.6402 0.541748ZM10.6399 6.28401C12.9863 6.28401 14.8977 8.19539 14.8977 10.5417C14.8977 12.8881 12.9863 14.7993 10.6399 14.7993C8.29357 14.7993 6.38221 12.8881 6.38221 10.5417C6.38221 8.19539 8.29357 6.28401 10.6399 6.28401Z" fill="#D2D2D2"/>
</g>
<circle id="Ellipse 687" cx="10.75" cy="10.5417" r="2.5" fill="#A4A3A3"/>
</g>
<defs>
<clipPath id="clip0_1162_14275">
<rect width="20" height="20" fill="white" transform="translate(0.75 0.541748)"/>
</clipPath>
</defs>
</svg>
