<svg width="20" height="20" viewBox="0 0 20 20" fill="none" xmlns="http://www.w3.org/2000/svg">
<g id="ico_member">
<g id="Group">
<path id="Vector" d="M10 9.78131C12.2237 9.78131 14.0265 7.59171 14.0265 4.89069C14.0265 2.1896 13.4346 0 10 0C6.56545 0 5.97345 2.1896 5.97345 4.89069C5.97345 7.59171 7.77625 9.78131 10 9.78131Z" fill="white"/>
<path id="Vector_2" d="M2.39483 17.2488C2.39346 17.2024 2.39415 17.0841 2.39483 17.2488V17.2488Z" fill="white"/>
<path id="Vector_3" d="M17.6049 17.3774C17.6056 17.0646 17.6071 17.3323 17.6049 17.3774V17.3774Z" fill="white"/>
<path id="Vector_4" d="M17.5966 17.0509C17.522 12.3457 17.2027 11.0049 12.5002 10.1562C12.5002 10.1562 11.5431 11.2496 10.0002 11.2496C8.45739 11.2496 7.50023 10.1562 7.50023 10.1562C2.84909 10.9957 2.49231 12.3165 2.40659 16.8981C2.39956 17.2722 2.39631 17.2918 2.39505 17.2484C2.39534 17.3298 2.39568 17.4803 2.39568 17.7428C2.39568 17.7428 3.51522 19.9997 10.0002 19.9997C16.4852 19.9997 17.6048 17.7428 17.6048 17.7428C17.6048 17.5741 17.6049 17.4569 17.6051 17.3771C17.6039 17.404 17.6013 17.3519 17.5966 17.0509Z" fill="white"/>
</g>
</g>
</svg>
