<svg width="20" height="20" viewBox="0 0 20 20" fill="none" xmlns="http://www.w3.org/2000/svg">
<g id="navigate_7961396 1" clip-path="url(#clip0_1205_9886)">
<path id="Vector" fill-rule="evenodd" clip-rule="evenodd" d="M0 10C0 4.47715 4.47715 0 10 0C15.5228 0 20 4.47715 20 10C20 15.5228 15.5228 20 10 20C4.47715 20 0 15.5228 0 10ZM15.171 6.92916C15.8313 5.41457 14.2924 3.87572 12.7778 4.53593L4.47753 8.15399C2.96496 8.81331 3.04203 10.9844 4.59754 11.5347L7.23792 12.469L8.1722 15.1095C8.72262 16.6649 10.8936 16.742 11.553 15.2295L15.171 6.92916ZM13.5043 6.20265L9.88627 14.5029L8.95195 11.8625C8.76887 11.3451 8.36185 10.9381 7.84443 10.755L5.20405 9.82073L13.5043 6.20265Z" fill="white" fill-opacity="0.5"/>
</g>
<defs>
<clipPath id="clip0_1205_9886">
<rect width="20" height="20" fill="white"/>
</clipPath>
</defs>
</svg>
