<svg width="16" height="18" viewBox="0 0 16 18" fill="none" xmlns="http://www.w3.org/2000/svg">
<g id="Vector">
<path fill-rule="evenodd" clip-rule="evenodd" d="M1.96875 8.33227H5.31936C5.84132 8.33165 6.34172 8.12403 6.71079 7.75495C7.07987 7.38587 7.28749 6.88547 7.28811 6.36352V3.0129C7.28754 2.49093 7.07994 1.99051 6.71085 1.62142C6.34176 1.25233 5.84133 1.04473 5.31936 1.04416H1.96875C1.44676 1.04469 0.946314 1.25228 0.577217 1.62137C0.20812 1.99047 0.00052946 2.49092 0 3.0129L0 6.36349C0.000578998 6.88545 0.208186 7.38588 0.577272 7.75496C0.946358 8.12405 1.44678 8.33169 1.96875 8.33227ZM16 15.0754V11.7243C15.9993 11.2024 15.7916 10.7021 15.4226 10.3331C15.0535 9.96411 14.5531 9.75657 14.0312 9.75601H10.6804C10.1585 9.75653 9.65812 9.96406 9.28903 10.3331C8.91995 10.7021 8.71231 11.2024 8.71167 11.7243V15.0754C8.71222 15.5974 8.91981 16.0978 9.28891 16.4669C9.658 16.836 10.1584 17.0436 10.6804 17.0441H14.0312C14.5532 17.0435 15.0536 16.8359 15.4227 16.4669C15.7918 16.0978 15.9994 15.5973 16 15.0754ZM1.96875 17.0441H5.31936C5.84133 17.0435 6.34175 16.8359 6.71084 16.4669C7.07992 16.0978 7.28753 15.5973 7.28811 15.0754V11.7243C7.28744 11.2024 7.07979 10.7021 6.71071 10.3331C6.34163 9.96411 5.84126 9.75657 5.31936 9.75601H1.96875C1.44684 9.75653 0.946448 9.96406 0.577362 10.3331C0.208276 10.7021 0.000636991 11.2024 0 11.7243L0 15.0754C0.000545975 15.5974 0.208142 16.0978 0.577235 16.4669C0.946329 16.836 1.44677 17.0436 1.96875 17.0441Z" fill="white"/>
<path d="M16 2.92434V6.27539C15.9994 6.79736 15.7918 7.29778 15.4227 7.66687C15.0536 8.03595 14.5532 8.24356 14.0313 8.24414H10.6804C10.1585 8.24359 9.65803 8.036 9.28894 7.6669C8.91984 7.29781 8.71225 6.79737 8.7117 6.27539V2.92434C8.71234 2.40243 8.91998 1.90208 9.28906 1.53308C9.65815 1.16408 10.1585 0.956548 10.6804 0.956027H14.0313C14.5532 0.956581 15.0535 1.16412 15.4226 1.53312C15.7917 1.90211 15.9993 2.40244 16 2.92434Z" fill="white"/>
</g>
</svg>
