<svg width="21" height="21" viewBox="0 0 21 21" fill="none" xmlns="http://www.w3.org/2000/svg">
<g clip-path="url(#clip0_1162_14268)">
<path d="M5.47203 16.8048L17.9847 16.7935C18.3865 16.793 18.7119 16.4673 18.7119 16.0655V2.72586C18.712 1.52142 17.7323 0.541748 16.528 0.541748H4.97198C3.76776 0.541748 2.78809 1.52142 2.78809 2.72607L2.7923 17.8722C2.7923 19.3441 3.99419 20.5417 5.47149 20.5417H17.9839C18.386 20.5417 18.7119 20.2159 18.7119 19.8137V19.4283C18.7119 19.0263 18.3861 18.7005 17.9841 18.7004L5.47138 18.6973C5.01646 18.6973 4.64625 18.3273 4.64625 17.8723V17.63C4.6463 17.175 5.01657 16.8048 5.47203 16.8048Z" fill="#D0D0D0"/>
<path d="M9.88102 11.6455C9.90006 9.98242 10.3888 9.47461 11.2267 8.9541C11.7599 8.63037 12.1662 8.16064 12.1662 7.49414C12.1662 6.70068 11.5568 6.19922 10.7951 6.19922C10.1095 6.19922 9.44303 6.61816 9.3859 7.55762H8.01481C8.06559 5.93896 9.28434 5.05664 10.7951 5.05664C12.4455 5.05664 13.55 6.04688 13.55 7.49414C13.55 8.51611 13.0612 9.19531 12.255 9.69043C11.4933 10.1538 11.195 10.6108 11.1759 11.6455V11.7217H9.88102V11.6455ZM9.6779 13.5625C9.67155 13.0674 10.0841 12.6611 10.5793 12.6611C11.068 12.6611 11.4743 13.0674 11.4806 13.5625C11.4743 14.0576 11.068 14.4575 10.5793 14.4639C10.0841 14.4575 9.67155 14.0576 9.6779 13.5625Z" fill="white"/>
</g>
<defs>
<clipPath id="clip0_1162_14268">
<rect width="20" height="20" fill="white" transform="translate(0.75 0.541748)"/>
</clipPath>
</defs>
</svg>
