<svg width="20" height="21" viewBox="0 0 20 21" fill="none" xmlns="http://www.w3.org/2000/svg">
<g id="pie-chart_4121290 1" clip-path="url(#clip0_1205_9898)">
<g id="ico_market">
<path id="Vector" fill-rule="evenodd" clip-rule="evenodd" d="M8.4247 11.6534C8.41005 11.6387 8.40182 11.6189 8.40182 11.5982V2.0788C8.40182 2.0333 8.363 1.99709 8.31764 2.00064C3.66297 2.36449 0 6.25493 0 11.0018C0 15.9897 4.04262 20.0323 9.02946 20.0323C11.1723 20.0323 13.1399 19.286 14.6883 18.0393C14.7245 18.0101 14.7271 17.9558 14.6943 17.923L8.4247 11.6534Z" fill="white" fill-opacity="0.5"/>
<path id="Vector_2" fill-rule="evenodd" clip-rule="evenodd" d="M17.6636 11.0004H10.0783C10.0087 11.0004 9.97384 11.0845 10.023 11.1337L15.3222 16.4329C15.3538 16.4645 15.4056 16.4635 15.4355 16.4304C16.7367 14.9935 17.5819 13.1355 17.7418 11.0846C17.7453 11.0392 17.7091 11.0004 17.6636 11.0004Z" fill="white" fill-opacity="0.5"/>
<path id="Vector_3" fill-rule="evenodd" clip-rule="evenodd" d="M10.2551 0.0181249C10.2145 0.0154882 10.1801 0.0479409 10.1801 0.0885675L10.1801 9.2553C10.1801 9.29412 10.2116 9.32559 10.2504 9.32559H19.4073C19.4478 9.32559 19.4803 9.29123 19.4777 9.25072C19.1618 4.29944 15.2044 0.339928 10.2551 0.0181249Z" fill="white" fill-opacity="0.5"/>
</g>
</g>
<defs>
<clipPath id="clip0_1205_9898">
<rect width="20" height="21" fill="white"/>
</clipPath>
</defs>
</svg>
