<svg width="21" height="21" viewBox="0 0 21 21" fill="none" xmlns="http://www.w3.org/2000/svg">
<g id="ico_notice" clip-path="url(#clip0_1162_14271)">
<path id="Vector" d="M9.40408 20.5417C10.9133 20.5417 12.1758 19.4659 12.4658 18.0417H6.34241C6.63248 19.4659 7.89499 20.5417 9.40408 20.5417Z" fill="#D2D2D2"/>
<path id="Vector_2" d="M15.2475 10.541C15.2441 10.541 15.2408 10.5418 15.2374 10.5418C12.0216 10.5418 9.40411 7.92505 9.40411 4.7085C9.40411 3.82425 9.60751 2.98837 9.96167 2.23672C9.77826 2.21933 9.59241 2.2085 9.40411 2.2085C6.18253 2.2085 3.57083 4.82004 3.57083 8.04178V10.3651C3.57083 12.0143 2.84833 13.571 1.58078 14.6426C1.15826 15.0034 0.970734 15.5784 1.12241 16.1393C1.2991 16.7918 1.94409 17.2085 2.62082 17.2085H16.1833C16.8933 17.2085 17.5625 16.7484 17.7066 16.0526C17.8183 15.5143 17.6266 14.9767 17.2091 14.6259C15.9974 13.6102 15.2966 12.1176 15.2475 10.541Z" fill="#D2D2D2"/>
<path id="Vector_3" d="M19.4041 4.70847C19.4041 7.00964 17.5387 8.87503 15.2374 8.87503C12.9362 8.87503 11.0708 7.00964 11.0708 4.70847C11.0708 2.40729 12.9362 0.541748 15.2374 0.541748C17.5387 0.541748 19.4041 2.40729 19.4041 4.70847Z" fill="#EA7272"/>
</g>
<defs>
<clipPath id="clip0_1162_14271">
<rect width="20" height="20" fill="white" transform="translate(0.25 0.541748)"/>
</clipPath>
</defs>
</svg>
