<svg width="20" height="20" viewBox="0 0 20 20" fill="none" xmlns="http://www.w3.org/2000/svg">
<path d="M12.8422 5.46914H17.2738L12.1484 0.34375V4.77539C12.1486 4.95932 12.2218 5.13566 12.3519 5.26572C12.4819 5.39578 12.6583 5.46893 12.8422 5.46914Z" fill="white" fill-opacity="0.5"/>
<path d="M12.8422 6.64062C12.3476 6.64 11.8734 6.44325 11.5237 6.09351C11.1739 5.74377 10.9772 5.2696 10.9766 4.775V0H4.53125C3.96164 0.000620379 3.41554 0.227172 3.01276 0.629948C2.60998 1.03272 2.38343 1.57883 2.38281 2.14844V17.8516C2.38343 18.4212 2.60998 18.9673 3.01276 19.3701C3.41554 19.7728 3.96164 19.9994 4.53125 20H15.4688C16.0384 19.9994 16.5845 19.7728 16.9872 19.3701C17.39 18.9673 17.6166 18.4212 17.6172 17.8516V6.64062H12.8422ZM13.125 16.0938H6.875C6.7196 16.0938 6.57056 16.032 6.46068 15.9221C6.3508 15.8122 6.28906 15.6632 6.28906 15.5078C6.28906 15.3524 6.3508 15.2034 6.46068 15.0935C6.57056 14.9836 6.7196 14.9219 6.875 14.9219H13.125C13.2804 14.9219 13.4294 14.9836 13.5393 15.0935C13.6492 15.2034 13.7109 15.3524 13.7109 15.5078C13.7109 15.6632 13.6492 15.8122 13.5393 15.9221C13.4294 16.032 13.2804 16.0938 13.125 16.0938ZM13.125 13.3594H6.875C6.7196 13.3594 6.57056 13.2976 6.46068 13.1878C6.3508 13.0779 6.28906 12.9288 6.28906 12.7734C6.28906 12.618 6.3508 12.469 6.46068 12.3591C6.57056 12.2492 6.875 12.1875 6.875 12.1875H13.125C13.2804 12.1875 13.4294 12.2492 13.5393 12.3591C13.6492 12.469 13.7109 12.618 13.7109 12.7734C13.7109 12.9288 13.6492 13.0779 13.5393 13.1878C13.4294 13.2976 13.2804 13.3594 13.125 13.3594Z" fill="white" fill-opacity="0.5"/>
</svg>
